<svg xmlns="http://www.w3.org/2000/svg" viewBox="0 0 24 24" width="24" height="24">
  <!-- Navy Blue Background Box -->
  <rect width="24" height="24" rx="6" fill="#1e3a5f" />
  
  <!-- Lucide Building2 Icon -->
  <g fill="none" stroke="white" stroke-width="1.8" stroke-linecap="round" stroke-linejoin="round" transform="translate(3, 3) scale(0.75)">
    <path d="M6 22V4a2 2 0 0 1 2-2h8a2 2 0 0 1 2 2v18Z" />
    <path d="M6 12H4a2 2 0 0 0-2 2v6a2 2 0 0 0 2 2h2" />
    <path d="M18 9h2a2 2 0 0 1 2 2v9a2 2 0 0 1-2 2h-2" />
    <path d="M10 6h4" />
    <path d="M10 10h4" />
    <path d="M10 14h4" />
    <path d="M10 18h4" />
  </g>
</svg>
